<?xml version="1.0" standalone="no"?>
<!DOCTYPE svg PUBLIC "-//W3C//DTD SVG 20010904//EN"
 "http://www.w3.org/TR/2001/REC-SVG-20010904/DTD/svg10.dtd">
<svg version="1.0" xmlns="http://www.w3.org/2000/svg"
 width="784.000000pt" height="679.000000pt" viewBox="0 0 784.000000 679.000000"
 preserveAspectRatio="xMidYMid meet">
<metadata>
Created by potrace 1.16, written by Peter Selinger 2001-2019
</metadata>
<g transform="translate(0.000000,679.000000) scale(0.100000,-0.100000)"
fill="#000000" stroke="none">
<path d="M0 3395 l0 -3395 3920 0 3920 0 0 3395 0 3395 -3920 0 -3920 0 0
-3395z m3484 3363 c5 -19 8 -21 16 -8 7 11 10 8 10 -17 0 -17 3 -34 8 -36 4
-3 7 -22 7 -43 0 -31 -5 -41 -25 -51 l-25 -13 28 0 c15 0 27 -4 27 -10 0 -14
-22 -60 -29 -60 -4 0 -7 -9 -7 -20 0 -18 7 -20 78 -20 l78 0 1 33 2 32 7 -35
7 -35 3 35 c1 19 4 63 6 98 3 39 1 62 -6 62 -5 0 -11 -25 -11 -57 l-1 -58 -9
55 c-5 30 -10 81 -12 113 l-3 57 443 0 443 0 2 -42 1 -43 4 37 c4 31 8 38 34
43 17 4 32 5 35 2 4 -4 8 -23 21 -104 3 -18 9 -30 14 -27 5 3 9 -2 9 -10 0 -9
-5 -15 -11 -13 -6 1 -12 -12 -13 -31 0 -20 4 -32 12 -32 6 0 12 -6 12 -14 0
-8 6 -13 13 -12 27 3 20 -18 -13 -35 l-35 -19 154 1 154 0 -6 150 -5 149 315
0 315 0 -7 -47 c-4 -27 -11 -56 -16 -65 -12 -23 -11 -185 1 -193 17 -10 11
-25 -9 -25 -29 0 -51 11 -51 25 0 7 -7 15 -15 19 -19 7 -20 -22 -1 -43 17 -18
46 -126 46 -167 0 -44 -14 -17 -50 96 -35 113 -49 139 -52 99 -2 -36 -2 -37
34 -139 29 -83 36 -95 55 -93 20 2 21 -2 25 -105 2 -59 2 -112 -1 -119 -10
-19 0 -184 10 -178 5 4 9 2 9 -2 0 -11 -37 -43 -49 -43 -9 0 -21 -24 -21 -41
0 -4 7 -6 15 -3 8 4 15 2 15 -4 0 -5 -7 -12 -15 -16 -8 -3 -12 -12 -9 -20 5
-14 8 -14 21 0 21 21 42 2 23 -21 -17 -20 -7 -19 32 5 18 11 44 20 58 20 24
-1 24 -1 -5 -14 l-30 -13 30 -7 30 -8 -37 -13 c-20 -7 -51 -15 -69 -19 -40 -8
-99 -52 -99 -73 0 -13 8 -10 33 13 l32 29 -31 -35 c-42 -46 -74 -108 -74 -143
0 -15 4 -26 8 -23 4 2 6 -12 5 -32 l-4 -37 15 32 c8 17 24 37 36 43 21 11 20
10 -4 -26 -14 -21 -26 -47 -26 -56 0 -39 -19 -15 -30 38 -13 61 -7 146 13 180
7 12 18 32 26 45 12 21 10 20 -18 -5 -17 -16 -34 -44 -37 -63 -3 -18 -10 -30
-15 -28 -4 3 -4 17 1 31 13 34 13 39 -5 24 -12 -10 -15 -10 -15 4 0 20 -29 21
-36 1 -4 -8 -12 -15 -20 -15 -8 0 -14 -10 -14 -26 0 -18 -4 -24 -13 -21 -8 3
-20 1 -28 -4 -10 -6 -7 -9 14 -9 24 0 27 -4 28 -32 1 -18 3 -58 5 -88 3 -30 6
-71 7 -90 l2 -35 63 0 c58 0 62 -1 62 -22 0 -23 59 -128 67 -120 6 6 -29 91
-40 99 -7 4 -5 29 5 70 11 43 13 65 5 70 -6 4 2 19 22 38 17 18 35 30 38 26 3
-3 -6 -15 -20 -27 -41 -32 -32 -43 12 -14 39 26 156 53 184 42 9 -3 14 -14 13
-24 -2 -10 4 -24 13 -30 12 -10 13 -15 4 -21 -20 -13 -5 -109 18 -115 25 -7
24 -17 -6 -58 -47 -65 -51 -77 -28 -102 25 -27 53 -81 53 -102 0 -8 11 -25 25
-37 27 -23 32 -47 13 -66 -17 -17 19 -44 50 -37 25 6 27 -2 9 -26 -7 -9 -19
-14 -27 -11 -12 4 -13 2 -2 -9 10 -11 18 -11 48 0 38 14 55 8 36 -11 -25 -25
-14 -41 22 -34 41 8 59 -10 31 -30 -27 -20 -12 -27 33 -14 24 6 51 23 66 41
14 17 26 26 26 20 0 -5 -4 -13 -10 -16 -21 -13 -9 -33 30 -50 46 -21 115 -17
193 10 57 19 67 15 37 -13 -17 -15 -18 -20 -6 -18 8 1 19 5 22 9 17 16 33 5
36 -26 l3 -32 26 51 c19 38 22 51 11 47 -10 -4 -13 -1 -10 8 5 17 98 68 114
62 6 -2 21 1 35 7 18 8 19 9 4 7 -11 -1 -24 1 -30 6 -5 5 -37 23 -70 40 l-60
32 -3 105 c-3 109 17 216 42 217 6 1 327 4 714 8 l702 8 0 -256 0 -257 -192
-2 c-106 -1 -238 -3 -293 -3 -118 -2 -182 -12 -166 -28 7 -7 1 -19 -21 -38
-25 -24 -29 -31 -19 -43 7 -8 10 -20 6 -26 -3 -5 2 -10 12 -10 15 0 16 -2 3
-10 -10 -6 -11 -10 -2 -10 6 0 12 -7 12 -16 0 -12 -8 -14 -45 -8 -25 3 -55 4
-68 0 -20 -5 -23 -11 -20 -38 3 -32 3 -32 -8 -8 -18 40 -27 63 -34 86 -9 36
-87 109 -135 128 -25 10 -47 22 -50 26 -3 5 -17 11 -32 15 -22 6 -32 1 -52
-20 -29 -31 -37 -56 -67 -200 -25 -120 -20 -219 17 -331 26 -82 31 -112 10
-75 -10 18 -15 20 -21 10 -5 -7 -4 -14 3 -17 14 -4 16 -22 3 -22 -5 0 -17 7
-26 16 -24 25 -41 3 -48 -62 -7 -66 4 -109 14 -54 l6 35 2 -42 c1 -37 -2 -43
-19 -43 -17 0 -20 -7 -21 -42 -2 -30 -3 -35 -6 -15 -2 15 -9 27 -14 27 -5 0
-9 9 -9 21 0 11 4 17 10 14 7 -4 9 2 4 19 -4 16 -2 26 5 26 7 0 11 21 11 54 0
35 5 56 12 58 8 3 4 9 -10 17 -23 12 -23 12 -17 -26 5 -29 4 -34 -4 -23 -9 11
-10 4 -6 -30 4 -30 2 -38 -3 -25 -8 18 -9 17 -14 -7 -3 -15 -1 -25 3 -22 5 3
9 -2 9 -10 0 -9 -4 -16 -10 -16 -5 0 -10 -20 -10 -44 0 -46 -16 -69 -31 -45
-4 7 -11 10 -16 6 -4 -5 -1 -12 6 -16 9 -6 11 -18 6 -40 -5 -26 -3 -36 16 -52
12 -10 19 -19 14 -19 -4 0 7 -14 24 -32 17 -17 31 -41 31 -53 0 -28 13 -43 80
-95 56 -43 79 -70 60 -70 -6 0 -6 -7 2 -20 7 -10 8 -23 4 -27 -5 -4 -11 -2
-14 6 -5 16 -9 19 -126 108 -72 54 -92 75 -99 103 -5 19 -13 40 -18 46 -5 6
-7 53 -4 104 4 82 2 97 -20 142 -20 41 -25 71 -29 164 -6 122 -14 183 -27 199
-6 8 -42 4 -116 -11 -125 -25 -173 -41 -189 -61 -13 -16 -27 -14 -153 25 -61
18 -86 22 -89 14 -2 -7 -8 -10 -13 -6 -5 3 -9 -4 -9 -15 0 -12 6 -21 13 -22
10 0 10 -2 0 -6 -7 -2 -13 -11 -13 -19 0 -17 -17 -19 -23 -1 -3 7 -6 5 -6 -5
-1 -10 6 -18 15 -18 10 0 14 -6 11 -14 -3 -8 -1 -31 4 -50 7 -25 17 -38 34
-42 31 -8 32 -24 3 -25 l-23 -2 23 -4 c12 -2 22 -9 22 -14 0 -6 -9 -7 -20 -4
-18 6 -20 2 -20 -32 0 -21 -4 -54 -10 -73 l-10 -35 20 25 c15 20 20 21 20 8 0
-9 -4 -19 -10 -23 -5 -3 -7 -12 -3 -20 3 -8 1 -15 -4 -15 -5 0 -9 -10 -9 -21
1 -12 -5 -24 -11 -26 -10 -4 -12 21 -10 106 2 61 1 111 -2 111 -7 0 -31 -74
-31 -95 0 -8 -4 -15 -8 -15 -5 0 -8 20 -8 44 1 24 5 42 9 39 5 -3 7 3 5 12 -1
10 -8 20 -15 22 -12 4 -17 -9 -28 -67 -5 -26 -3 -31 4 -20 17 24 14 -13 -4
-57 -9 -20 -13 -43 -11 -50 3 -7 3 -20 -1 -29 -5 -13 -7 -13 -14 -2 -7 10 -9
9 -9 -4 0 -10 7 -18 15 -18 8 0 15 -7 16 -15 3 -55 1 -86 -4 -92 -4 -3 -7 6
-7 20 0 15 -5 27 -10 27 -6 0 -8 -11 -4 -27 6 -21 4 -25 -9 -20 -9 3 -18 0
-21 -9 -3 -9 1 -14 12 -15 9 -1 31 -2 47 -4 17 -1 60 -3 97 -4 42 -1 72 -6 80
-14 7 -8 20 -12 30 -9 10 2 18 0 18 -4 0 -5 3 -20 6 -34 6 -24 6 -24 -9 -5
-11 15 -28 20 -66 21 -28 1 -48 -2 -45 -7 3 -5 22 -9 44 -9 32 0 39 -4 44 -24
3 -14 3 -32 -1 -42 -4 -12 -3 -15 6 -10 9 6 10 1 5 -19 -4 -18 -3 -25 6 -23 8
2 19 -17 29 -45 13 -42 13 -50 0 -58 -11 -7 -10 -9 6 -9 16 0 24 -11 34 -47 8
-33 9 -49 2 -51 -14 -5 -14 -32 -1 -32 6 0 10 6 10 13 1 15 15 -8 24 -40 6
-17 3 -23 -9 -23 -12 0 -15 6 -10 23 5 19 4 20 -5 4 -9 -13 -25 -17 -74 -17
-88 0 -186 11 -186 21 0 14 78 10 83 -3 3 -7 5 7 5 32 0 25 -2 39 -5 33 -2 -8
-22 -13 -44 -13 -38 0 -39 1 -39 35 0 34 -1 35 -39 35 -22 0 -41 -4 -43 -9 -1
-4 -32 -11 -66 -15 -44 -5 -62 -4 -57 3 3 6 15 11 26 11 40 0 17 18 -38 28
-80 16 -194 11 -210 -8 -12 -13 -15 -13 -27 3 -7 9 -18 17 -24 17 -6 0 -14 5
-18 11 -4 8 0 9 15 4 11 -3 52 -3 91 1 57 5 70 10 70 24 0 14 -15 19 -82 27
-58 7 -70 10 -40 12 l42 1 0 40 c0 39 -1 40 -35 40 -39 0 -95 24 -95 40 0 6
11 16 25 22 14 6 25 17 25 25 0 15 26 18 35 3 9 -14 58 -13 73 2 9 9 12 9 12
0 0 -7 7 -12 15 -12 8 0 15 4 15 9 0 4 12 7 28 4 23 -3 24 -2 7 6 -11 6 -60
10 -110 11 -49 0 -153 5 -230 9 -191 12 -465 23 -465 19 0 -2 11 -30 25 -63
17 -43 30 -61 46 -65 18 -5 35 -34 82 -145 32 -77 59 -141 60 -142 4 -3 208
-22 332 -30 66 -4 110 -9 98 -11 -19 -3 -23 -10 -23 -43 0 -39 0 -39 40 -39
l40 0 0 -59 0 -60 -42 -3 c-29 -2 -42 -7 -40 -16 1 -8 -2 -11 -8 -7 -5 3 -20
1 -32 -6 -14 -7 -10 0 11 18 36 31 38 67 4 61 -10 -1 -24 1 -31 6 -8 5 -18 3
-25 -6 -44 -50 -64 -60 -111 -53 -32 5 -46 12 -47 24 -1 14 -2 13 -6 -1 -2
-10 -14 -19 -26 -19 -39 -2 33 -17 89 -18 44 -1 54 3 79 29 28 29 55 39 55 21
0 -5 -9 -15 -19 -22 -11 -8 -44 -35 -74 -62 -48 -42 -60 -48 -111 -51 -60 -5
-76 6 -76 53 0 28 -34 35 -140 28 -164 -12 -182 -40 -38 -62 45 -7 73 -14 61
-15 -13 -1 -27 -4 -33 -5 -5 -1 -14 -3 -18 -4 -14 -2 -5 -114 11 -145 8 -15
29 -37 47 -47 35 -22 33 -34 -8 -42 -17 -4 -33 -16 -42 -34 -8 -15 -19 -31
-24 -35 -5 -3 11 -11 35 -16 24 -5 34 -10 22 -11 -33 -1 -28 -21 5 -22 l27 -2
-27 -4 c-41 -6 -34 -23 9 -23 46 0 38 -8 -18 -18 -42 -7 -43 -8 -44 -49 l-1
-42 50 -6 c61 -7 443 -1 451 7 3 3 -7 9 -22 13 l-28 7 34 14 c18 8 66 14 107
14 47 0 74 4 74 11 0 8 -24 9 -78 4 -63 -5 -80 -4 -90 8 -8 9 -26 14 -47 12
-26 -3 -32 0 -28 11 3 8 15 14 27 15 17 0 18 2 4 7 -9 4 -68 5 -130 2 -124 -6
-138 -5 -138 16 0 12 12 13 56 9 32 -3 64 0 76 6 15 8 22 8 28 -1 4 -7 13 -9
19 -6 6 4 9 10 7 14 -2 4 21 7 52 7 32 -1 62 3 68 7 6 5 23 4 37 -1 14 -5 27
-7 30 -5 3 3 92 7 199 10 106 2 209 8 228 13 19 5 27 9 18 10 -10 1 -18 6 -18
11 0 9 60 13 228 15 17 0 32 3 32 8 0 4 -22 7 -50 7 -30 0 -50 4 -50 11 0 7
-17 10 -44 8 -24 -2 -42 -1 -39 4 8 12 158 8 172 -6 10 -10 12 16 11 133 -1
80 -1 149 -1 153 1 4 10 3 20 -3 16 -8 21 -6 26 11 8 25 -2 89 -15 89 -5 0
-11 -9 -13 -20 -4 -17 -4 -17 -3 2 0 13 11 28 26 35 30 15 96 17 105 3 9 -14
48 -12 81 4 15 8 32 12 38 9 5 -4 -8 -14 -30 -23 -32 -14 -35 -18 -19 -22 11
-3 1 -6 -22 -7 -42 -1 -43 -2 -43 -34 0 -30 3 -33 31 -35 39 -3 51 -10 43 -24
-4 -6 -6 -42 -5 -79 2 -70 -2 -77 -42 -70 -5 1 -7 -4 -5 -11 3 -7 15 -12 26
-10 15 2 22 -2 22 -12 0 -11 -9 -16 -30 -16 -17 0 -30 5 -30 13 0 8 -4 7 -10
-3 -5 -8 -10 -43 -10 -77 0 -46 -3 -61 -12 -58 -9 4 -12 24 -10 65 2 36 0 60
-6 60 -6 0 -18 3 -28 7 -16 6 -17 -1 -12 -75 4 -57 3 -82 -5 -85 -7 -2 12 -7
41 -11 49 -6 52 -8 46 -31 -5 -21 -3 -25 17 -26 13 0 41 -2 62 -4 36 -2 39 -1
34 21 -3 18 0 24 14 24 9 0 19 4 21 9 2 4 14 12 28 16 24 7 24 7 5 -9 -20 -15
-20 -15 2 -11 13 2 31 8 40 14 15 9 15 10 2 11 -16 0 -20 33 -6 46 4 4 7 29 7
56 l0 48 -40 0 c-46 0 -43 -15 -41 173 0 80 -3 117 -10 117 -8 0 -7 5 1 15 7
8 24 15 39 15 l26 1 -25 15 c-24 14 -22 14 25 8 57 -7 82 -21 65 -38 -5 -5
-10 -33 -10 -61 l0 -51 139 4 c138 4 214 -1 239 -17 11 -7 11 -16 1 -50 -11
-37 -15 -41 -44 -41 -72 0 -177 -58 -155 -85 8 -9 -1 -16 -34 -27 l-45 -15
-34 36 c-19 20 -42 50 -50 66 -15 29 -15 27 -19 -73 l-3 -104 30 6 c16 4 33
10 38 15 5 5 -2 6 -16 4 -16 -3 -26 1 -30 11 -7 19 2 25 42 30 27 3 31 1 26
-15 -4 -11 -2 -19 5 -19 7 0 9 -8 5 -20 -4 -13 0 -23 13 -31 20 -12 20 -13 -1
-30 -21 -17 -22 -17 -3 -38 12 -13 31 -21 50 -21 17 0 38 -5 46 -10 10 -6 11
-10 3 -10 -9 0 -13 -16 -13 -45 0 -42 1 -44 38 -54 20 -6 43 -11 50 -11 7 0
10 -4 7 -10 -3 -5 0 -7 9 -4 8 3 31 1 52 -5 44 -12 70 2 27 15 -30 9 249 24
295 15 54 -9 -8 -21 -113 -21 -87 -1 -106 -3 -91 -12 12 -7 59 -10 114 -9 58
1 91 -2 88 -8 -4 -5 -1 -13 5 -17 6 -3 14 -2 18 4 7 12 181 20 199 9 15 -10
16 -27 1 -27 -5 0 -7 5 -3 11 9 15 -59 3 -89 -14 -15 -9 -21 -9 -24 1 -7 18
-33 15 -33 -4 0 -15 15 -16 135 -12 74 2 135 1 135 -3 0 -4 19 -9 43 -11 23
-2 -66 -4 -198 -5 -132 0 -232 1 -222 4 25 7 10 23 -21 23 -20 0 -23 -3 -13
-9 12 -8 10 -11 -10 -16 -13 -3 -707 -4 -1542 -3 -1006 2 -1517 0 -1517 -7 0
-5 -4 -4 -8 3 -9 13 -98 12 -120 -2 -7 -4 -12 -2 -12 3 0 6 -11 11 -25 11 -14
0 -25 -5 -25 -11 0 -6 -5 -7 -12 -2 -17 10 130 8 -1498 17 -789 4 -1437 10
-1439 12 -10 9 -41 -75 -41 -112 0 -52 5 -54 120 -54 49 0 91 -3 93 -8 3 -4 8
-86 12 -182 4 -96 11 -182 16 -191 5 -9 5 -30 0 -47 -5 -17 -7 -33 -3 -36 3
-3 -3 -15 -12 -25 -10 -11 -15 -24 -12 -29 3 -5 -5 -18 -17 -29 -23 -21 -216
-133 -229 -133 -10 0 -9 39 1 65 5 11 4 31 -2 45 -5 14 -16 106 -23 205 -22
299 -26 335 -35 335 -5 0 -9 -7 -9 -15 0 -8 -5 -15 -11 -15 -17 0 -54 -33 -57
-52 -2 -10 2 -18 9 -18 7 0 9 -10 7 -25 -3 -14 -1 -25 4 -25 5 0 6 -4 3 -10
-3 -5 -32 -10 -64 -10 -41 0 -62 -5 -71 -15 -10 -12 -15 -13 -20 -4 -4 6 -39
14 -78 17 l-70 5 -1 121 c0 66 -3 221 -7 344 l-7 222 26 0 c25 0 57 23 57 41
0 5 -17 7 -38 3 l-37 -6 0 169 c0 92 2 218 3 279 l2 111 202 53 c111 28 217
54 234 57 l32 5 6 -213 c3 -118 8 -282 10 -366 l4 -152 77 -103 c43 -57 80
-104 84 -105 3 -2 12 1 19 5 10 7 13 100 15 427 1 284 5 419 13 422 7 2 9 -43
6 -144 -3 -82 1 -197 7 -258 7 -60 15 -174 20 -252 4 -78 10 -145 13 -148 3
-4 31 6 62 21 l56 27 2 136 2 136 3 -132 c2 -73 6 -133 8 -133 3 0 218 107
479 237 l475 237 5 266 c6 316 5 312 18 304 6 -4 4 4 -2 17 -18 35 -19 34 -16
-5 2 -23 -1 -36 -9 -36 -13 0 -25 85 -25 181 l0 59 -40 0 c-31 0 -38 -3 -34
-15 4 -8 3 -22 0 -31 -5 -13 -9 -14 -21 -4 -8 6 -19 9 -25 5 -6 -3 -10 3 -10
16 0 17 3 19 14 10 10 -9 15 -8 20 4 4 10 -1 15 -14 15 -11 0 -20 5 -20 10 0
6 -21 10 -47 10 -39 0 -52 5 -80 32 -21 20 -33 27 -33 17 0 -8 -9 -20 -20 -27
-18 -11 -25 -10 -51 9 -20 14 -27 24 -20 29 7 4 2 11 -14 18 -35 16 -55 15
-55 -3 0 -11 -12 -15 -44 -15 -42 0 -45 2 -52 32 l-7 33 -15 -35 -15 -35 -13
30 -13 30 -1 -27 c0 -26 -3 -28 -40 -28 -29 0 -40 4 -40 15 0 11 -11 15 -40
15 -22 0 -40 5 -40 10 0 15 -77 12 -84 -2 -3 -7 -4 -1 -1 13 3 18 -2 35 -15
50 l-20 24 -19 -22 c-11 -13 -25 -23 -33 -22 -10 0 -10 2 -1 6 26 10 12 22
-34 29 -27 3 -55 13 -64 20 -9 8 -24 12 -33 8 -9 -3 -16 -2 -16 4 0 6 6 13 12
15 8 3 5 6 -6 6 -13 1 -17 6 -13 21 3 11 1 20 -5 20 -6 0 -8 -60 -4 -169 4
-93 3 -177 -1 -187 -5 -11 -10 35 -13 110 l-5 129 -74 1 c-83 1 -76 -7 -83 93
-3 49 13 71 64 87 25 9 34 17 36 39 l3 27 -98 -1 c-54 0 -105 -3 -114 -7 -16
-7 -16 -12 0 -97 5 -27 10 -79 10 -115 1 -54 -3 -69 -19 -83 -22 -19 -46 -22
-54 -8 -7 10 -25 9 -43 -2 -15 -10 -33 -1 -33 16 0 7 -9 20 -20 30 -19 16 -20
16 -20 -4 0 -46 -18 -5 -24 55 -7 67 1 127 14 107 4 -8 15 -5 32 9 15 11 31
20 37 20 6 0 11 4 11 9 0 5 17 14 38 20 31 9 21 10 -61 7 -55 -3 -101 -7 -104
-9 -2 -3 3 -19 11 -36 20 -37 20 -39 0 -43 -12 -2 -18 -15 -19 -41 -4 -59 -14
-87 -30 -87 -9 0 -20 12 -25 28 -6 15 -15 37 -21 49 -13 25 -3 47 17 39 8 -3
14 -1 14 4 0 6 9 10 19 10 17 0 31 18 31 41 0 10 -247 0 -270 -11 -8 -4 -63
-11 -122 -15 l-108 -7 0 34 0 35 61 7 c34 3 79 6 99 6 32 0 37 3 36 23 -1 12
3 25 9 30 5 4 -30 7 -80 6 -116 -2 -125 -1 -125 10 0 5 12 14 28 20 l27 11
-27 -5 -28 -5 0 1285 0 1285 1734 0 1734 0 6 -22z m2106 12 c-12 -8 -13 -12
-2 -19 8 -4 13 -12 12 -17 -1 -5 3 -10 9 -12 6 -2 11 9 11 25 1 53 20 -2 23
-64 1 -37 7 -62 17 -70 13 -11 13 -12 -1 -13 -9 0 -22 -7 -29 -15 -10 -12 -8
-17 14 -26 20 -10 23 -15 15 -30 -7 -14 -21 -19 -54 -19 -24 0 -47 5 -50 11
-4 5 -8 55 -10 110 -3 96 -2 99 18 99 13 0 17 3 11 8 -6 4 -13 15 -17 25 -5
13 -1 17 21 17 21 0 24 -2 12 -10z m1173 3 c-7 -2 -13 -12 -13 -21 -1 -15 -2
-15 -11 0 -9 16 -12 16 -32 3 -12 -8 -26 -13 -32 -12 -5 1 -11 -13 -13 -30 -3
-32 12 -46 21 -20 2 6 8 8 13 4 5 -4 2 -12 -6 -17 -12 -7 -12 -12 -2 -22 6 -6
12 -15 12 -18 0 -10 -34 -8 -47 2 -13 10 -28 -6 -19 -21 4 -5 0 -12 -6 -15 -7
-4 -3 -4 10 -2 15 3 22 -1 22 -11 0 -10 6 -14 20 -10 13 3 20 0 20 -9 0 -8 6
-14 13 -14 9 0 9 -2 -1 -9 -7 -4 -12 -14 -10 -22 4 -17 -127 -32 -154 -17 -12
5 -26 5 -39 -3 -17 -9 -23 -8 -30 2 -5 8 -9 17 -9 20 0 12 -85 29 -159 33 -83
4 -102 1 -95 -18 7 -19 -16 -33 -68 -39 l-47 -7 5 30 c5 25 4 28 -12 23 -11
-2 -30 -18 -43 -35 -21 -26 -23 -33 -12 -50 10 -16 10 -19 -1 -16 -7 3 -14 16
-16 29 -3 22 -7 24 -42 21 -43 -4 -48 -12 -24 -36 12 -12 12 -16 2 -16 -7 -1
-44 -3 -83 -6 -63 -6 -68 -5 -56 10 9 11 10 16 2 16 -6 0 -11 5 -11 10 0 6 14
10 31 10 16 0 28 -4 24 -9 -10 -17 18 -24 30 -8 11 15 13 15 22 -6 7 -15 9 29
5 146 l-5 167 429 -1 c236 0 423 -3 417 -6z m1067 -31 c0 -37 -1 -38 -30 -34
-22 3 -30 10 -30 24 0 19 -2 19 -22 5 -16 -10 -22 -23 -20 -42 2 -18 -1 -26
-10 -23 -8 3 -11 19 -9 46 3 46 -5 54 -19 20 l-9 -23 0 23 c-1 19 -5 22 -21
17 -13 -4 -20 -2 -20 7 -1 10 -4 9 -13 -2 -14 -18 -37 -24 -37 -10 0 6 -4 10
-10 10 -16 0 -11 -30 5 -31 8 -1 21 -2 28 -3 16 -1 22 -63 7 -81 -14 -16 1
-28 25 -19 15 6 16 4 6 -14 -10 -18 -9 -22 4 -22 8 0 15 8 16 18 0 9 3 12 5 5
3 -7 0 -21 -6 -32 -9 -17 -8 -20 5 -15 8 4 15 2 15 -4 0 -16 -27 -33 -43 -26
-9 3 -32 1 -52 -6 -28 -9 -39 -9 -51 1 -14 11 -13 15 8 31 18 14 20 18 6 18
-15 0 -33 43 -27 66 5 17 -13 94 -21 94 -4 0 -17 -8 -29 -17 -18 -15 -21 -30
-23 -100 -2 -80 -10 -115 -23 -101 -4 4 -7 34 -7 68 0 33 -4 73 -8 88 -8 26
-8 26 -11 -8 -1 -19 -2 -43 -1 -52 2 -26 -5 -22 -48 22 -21 22 -46 41 -54 41
-29 3 -34 4 -42 12 -11 11 -147 8 -164 -4 -13 -9 -13 -10 1 -6 19 6 29 -32 19
-73 l-6 -25 -8 22 c-4 13 -4 27 -1 33 9 14 -8 12 -24 -2 -10 -11 -12 -7 -9 17
3 28 1 30 -32 29 l-35 0 -2 -55 c-5 -100 -11 -119 -38 -119 l-25 0 0 135 0
135 445 0 445 0 0 -38z m-1570 -392 c0 -11 5 -20 11 -20 8 0 9 -13 5 -40 -6
-36 -4 -41 11 -38 15 2 18 -5 19 -39 0 -24 4 -46 7 -50 11 -10 8 -51 -3 -58
-7 -4 -7 -12 0 -25 13 -24 13 -60 0 -60 -7 0 -7 -6 0 -19 13 -25 13 -58 0 -63
-18 -6 13 -58 35 -58 19 0 20 6 17 219 l-3 220 43 5 c24 3 355 7 736 9 l692 3
0 -368 c0 -343 -1 -368 -17 -369 -17 -1 -17 -2 0 -6 13 -3 17 -15 17 -49 0
-28 -4 -43 -10 -39 -7 4 -7 -3 0 -20 14 -36 13 -115 -2 -170 -10 -38 -15 -44
-31 -39 -11 3 -17 2 -14 -2 3 -5 -23 -10 -56 -11 l-62 -2 -1 107 c-1 124 -13
250 -25 258 -5 3 -9 -12 -9 -33 -1 -21 -1 -51 -1 -68 -1 -16 -3 -25 -5 -19 -3
7 -13 10 -24 7 -22 -6 -44 29 -37 58 3 10 0 19 -5 19 -6 0 -8 -14 -5 -34 5
-34 -6 -56 -30 -56 -8 0 -13 12 -13 29 0 68 -11 90 -49 101 -51 14 -51 14 -51
-33 0 -43 1 -43 30 -39 18 3 30 0 30 -7 0 -6 -13 -11 -30 -11 l-30 0 0 -72 c0
-92 7 -118 31 -118 11 0 19 -5 19 -11 0 -6 -9 -8 -20 -4 -11 4 -20 2 -20 -4 0
-18 -39 -51 -59 -51 -21 0 -37 56 -26 90 4 13 2 20 -6 20 -9 0 -10 3 -3 10 7
7 8 31 3 67 -5 36 -4 62 2 69 7 8 7 31 1 66 -6 29 -8 56 -5 60 2 5 -2 8 -11 8
-8 0 -17 -6 -19 -12 -3 -7 -6 0 -6 15 -1 18 -5 26 -12 21 -8 -5 -10 -33 -5
-90 4 -54 3 -84 -4 -84 -6 0 -10 30 -10 70 0 75 -15 94 -26 33 -5 -25 -3 -38
5 -41 6 -2 11 -17 11 -34 0 -19 -4 -28 -12 -26 -8 3 -15 32 -18 79 -5 67 -7
74 -25 71 -27 -5 -28 -7 -27 -47 1 -22 -3 -35 -11 -35 -8 0 -7 -4 3 -10 8 -5
11 -12 7 -16 -4 -4 -2 -14 5 -21 9 -11 9 -16 -1 -22 -7 -5 -16 -26 -21 -47
l-9 -39 20 24 20 24 -5 -26 c-2 -14 0 -27 5 -29 5 -2 3 -12 -6 -23 -12 -14
-18 -16 -21 -7 -3 6 -10 12 -15 12 -5 0 -8 -6 -6 -12 1 -7 -3 -12 -9 -11 -7 1
-10 -6 -7 -17 5 -17 7 -17 20 -5 24 25 33 17 33 -27 0 -63 -33 -88 -119 -89
-36 -1 -79 -2 -94 -3 -16 -1 -31 2 -33 6 -3 4 4 8 15 8 20 0 25 15 23 65 -10
233 -14 263 -33 258 -16 -5 -19 -15 -19 -70 0 -35 -6 -74 -12 -86 -11 -19 -14
-11 -18 67 -3 57 -9 91 -17 93 -8 3 -13 -16 -15 -64 -2 -55 -6 -68 -20 -71
-16 -3 -18 5 -18 66 l0 70 -47 4 c-27 3 -51 3 -55 1 -5 -2 -8 -31 -8 -64 0
-57 10 -82 35 -88 6 -1 9 -13 8 -27 -2 -25 6 -31 23 -14 7 7 18 2 34 -15 l23
-25 -24 0 c-14 0 -29 4 -35 10 -6 6 -14 3 -22 -10 -10 -16 -9 -18 5 -13 10 4
14 2 9 -5 -3 -6 -2 -13 4 -17 5 -3 10 1 10 9 0 9 4 16 8 16 18 0 21 -13 7 -32
-7 -11 -11 -26 -9 -33 3 -7 -8 -18 -25 -25 -47 -19 -37 -27 29 -22 33 2 67 1
77 -4 12 -6 -18 -11 -87 -14 -114 -5 -153 -3 -144 11 3 5 -2 9 -10 9 -8 0 -16
-8 -19 -17 -4 -17 -5 -17 -12 1 -5 12 -3 21 7 27 11 6 14 27 11 99 -2 50 1 99
6 108 10 20 2 112 -10 112 -4 0 -9 -17 -11 -37 -2 -24 -7 -4 -12 55 -10 110
-21 122 -104 122 -42 0 -53 -3 -49 -14 3 -7 0 -19 -6 -25 -8 -8 -8 -11 1 -11
8 0 9 -7 2 -26 -13 -32 -12 -37 0 -29 14 9 25 -24 12 -37 -6 -6 -7 -21 -2 -39
7 -24 6 -29 -8 -29 -16 -1 -16 -1 0 -11 10 -5 15 -16 12 -24 -4 -8 -1 -15 6
-15 9 0 10 -3 1 -13 -6 -8 -8 -17 -3 -21 4 -4 -2 -12 -12 -18 -10 -6 -14 -13
-10 -17 15 -11 34 -50 34 -70 0 -12 -18 -32 -46 -51 -25 -18 -43 -34 -40 -37
3 -3 12 -1 19 5 14 12 27 7 27 -10 0 -4 -47 -8 -105 -7 -103 1 -106 2 -103 22
4 29 21 41 29 20 3 -9 12 -17 20 -18 12 -2 14 29 14 192 l0 195 -28 24 c-15
13 -40 24 -55 24 -20 1 -39 15 -75 58 -83 99 -97 119 -97 141 0 23 -9 25 -117
21 -34 -1 -86 4 -115 10 -43 10 -66 9 -128 -4 -41 -8 -76 -20 -78 -26 -2 -5
-13 -15 -24 -21 -11 -6 -18 -7 -14 -1 3 5 8 92 11 193 l6 184 37 33 c20 18 48
35 62 38 14 3 41 9 60 14 19 5 149 12 288 16 236 7 252 8 252 26 0 10 5 18 10
18 6 0 10 -9 10 -20z m8 -1178 c2 -12 8 -22 13 -22 5 0 9 -7 9 -15 0 -8 -4
-15 -10 -15 -5 0 -10 -9 -10 -20 0 -11 5 -20 11 -20 8 0 10 -14 6 -39 -2 -21
0 -45 5 -52 7 -10 7 -7 3 8 -5 18 -3 22 8 17 8 -3 17 -16 20 -30 4 -23 2 -24
-32 -18 -46 8 -64 23 -58 46 3 10 0 18 -8 18 -20 0 -45 63 -45 112 0 25 2 47
5 49 2 3 21 4 42 4 31 -2 39 -6 41 -23z m-353 -203 c-9 -27 -14 -57 -11 -65
14 -38 -10 -31 -59 15 -29 28 -65 53 -79 57 -30 7 -31 12 -11 40 10 16 30 23
72 28 32 4 67 14 78 22 19 14 20 13 23 -16 2 -17 -4 -53 -13 -81z m856 -309
c6 0 7 -4 4 -10 -3 -5 -2 -10 4 -10 6 0 14 -12 17 -27 4 -16 13 -39 20 -53 25
-49 56 -156 61 -215 3 -33 6 -130 8 -215 1 -85 8 -183 15 -218 11 -50 12 -71
2 -107 -7 -25 -12 -59 -12 -75 0 -23 -4 -30 -20 -30 -30 0 -57 80 -76 220 -31
242 -40 289 -53 300 -12 10 -44 107 -59 180 -16 84 -9 143 27 226 16 34 25 45
37 40 8 -3 20 -6 25 -6z m352 -296 c20 2 37 0 38 -3 5 -27 6 -78 2 -85 -3 -5
-5 -48 -4 -97 2 -85 1 -89 -19 -89 -28 0 -23 -35 6 -36 11 -1 30 -6 41 -13 16
-8 24 -8 28 0 5 7 16 3 31 -12 14 -13 38 -23 59 -24 20 -1 39 -5 42 -9 3 -3
28 -6 55 -6 35 0 48 -4 45 -12 -2 -7 -10 -13 -18 -14 -8 0 -22 -4 -32 -9 -9
-4 -40 -8 -67 -9 -33 -1 -50 -5 -50 -13 0 -16 -12 -17 -28 -1 -7 7 -12 9 -12
5 0 -4 -8 -3 -19 2 -10 6 -21 7 -25 3 -12 -11 -81 -10 -88 2 -4 6 -7 64 -7
129 0 64 -5 126 -11 137 -5 10 -10 31 -10 47 -1 15 -7 46 -15 67 -15 42 -11
63 8 47 7 -5 29 -8 50 -7z m-6890 -341 c3 -10 4 -66 3 -125 0 -64 3 -109 9
-112 28 -10 -15 -21 -78 -19 -81 2 -127 15 -127 38 0 8 -7 15 -15 15 -13 0
-15 14 -13 82 3 81 3 81 37 100 18 10 35 17 37 15 2 -2 32 2 66 9 35 6 66 12
70 13 4 1 9 -7 11 -16z m7597 -455 l0 -193 -320 3 c-270 3 -321 1 -326 -11 -3
-9 -21 -15 -49 -15 l-44 -1 5 132 c5 151 16 270 21 245 7 -27 133 -35 214 -13
44 12 115 19 224 22 88 2 174 8 190 13 17 4 42 9 58 9 l27 1 0 -192z m-6506
75 c54 -3 92 -9 85 -13 -8 -4 -52 -15 -99 -24 -47 -10 -152 -35 -235 -56 -159
-40 -402 -98 -550 -131 -49 -11 -112 -27 -139 -35 -56 -16 -95 -18 -56 -3 26
11 154 42 450 109 262 60 253 56 225 94 -14 18 -16 18 -27 4 -20 -26 -165 -29
-165 -4 0 11 22 16 89 22 73 5 92 10 101 26 11 17 24 19 117 18 58 -1 149 -4
204 -7z m-1211 -670 c4 -71 7 -272 7 -448 0 -176 3 -371 6 -432 5 -82 4 -113
-5 -113 -6 0 -11 6 -11 14 0 13 -24 23 -74 33 -18 3 -19 -3 -11 -169 4 -95 9
-237 10 -315 2 -79 8 -150 15 -162 8 -16 8 -27 -1 -42 -6 -13 -9 -57 -7 -110
3 -84 2 -89 -17 -89 -11 0 -15 4 -10 8 14 10 17 32 5 32 -7 0 -10 153 -10 438
l0 438 33 0 c27 -1 32 3 35 24 6 49 16 56 22 15 5 -30 7 -19 8 45 0 47 -2 79
-5 73 -11 -29 -25 -11 -19 25 3 20 3 30 -1 22 -3 -8 -9 -17 -14 -20 -4 -3 -19
-25 -33 -50 l-26 -45 0 472 0 472 27 4 c75 11 69 20 76 -120z m6822 91 c28 -8
65 -14 83 -14 34 0 43 -14 15 -24 -11 -5 -13 -10 -7 -14 13 -8 15 -44 2 -36
-5 3 -15 1 -23 -6 -10 -9 -16 -7 -24 7 -6 11 -11 13 -11 5 0 -9 -7 -11 -20 -7
-16 5 -20 2 -18 -16 3 -20 -2 -23 -27 -24 -23 0 -31 5 -36 25 -4 14 -7 18 -8
8 -1 -9 3 -28 9 -42 5 -14 6 -26 2 -26 -15 0 -32 67 -32 129 0 60 1 62 23 55
12 -4 45 -13 72 -20z m213 -189 c-3 -14 -1 -28 3 -31 5 -3 9 0 9 6 0 7 7 5 16
-4 11 -11 14 -25 9 -46 l-7 -30 61 -1 c34 -1 67 -2 73 -3 7 -1 13 10 13 23 0
18 7 26 28 32 33 9 55 3 80 -22 19 -20 23 -34 7 -24 -5 3 -10 1 -10 -4 0 -6
13 -11 29 -11 17 0 33 -4 36 -10 11 -18 27 -11 20 9 -3 11 -1 23 6 27 8 5 4
13 -12 25 -15 11 -18 19 -10 19 8 0 19 8 26 17 12 15 12 14 8 -10 -4 -22 -2
-26 11 -21 10 4 15 12 12 19 -3 8 1 16 9 19 9 3 12 0 8 -10 -6 -16 12 -20 22
-4 3 6 15 10 27 10 14 0 18 5 14 15 -3 8 -1 15 4 15 5 0 12 -9 15 -21 4 -12
15 -29 26 -40 16 -16 21 -17 45 -4 15 7 30 18 34 24 3 6 22 13 40 17 l35 5
-32 -16 c-18 -10 -31 -22 -30 -29 1 -7 -9 -10 -26 -8 -18 2 -26 -1 -22 -7 3
-6 1 -11 -6 -11 -7 0 -4 -6 6 -14 18 -13 18 -13 -3 -12 -11 0 -34 16 -50 34
-25 27 -33 31 -60 26 -18 -4 -29 -11 -26 -16 3 -5 13 -7 21 -4 8 3 11 1 8 -4
-3 -6 -14 -10 -25 -10 -22 0 -30 -18 -23 -54 4 -17 1 -31 -7 -36 -11 -7 -10
-14 4 -35 10 -15 13 -24 7 -21 -15 10 -14 -17 1 -32 9 -9 8 -12 -4 -12 -9 0
-19 -7 -22 -16 -4 -9 -9 -14 -13 -11 -3 4 -12 2 -20 -4 -9 -8 -13 -8 -13 -1 0
6 4 13 8 16 9 6 7 125 -3 134 -3 3 -5 -8 -5 -23 0 -27 -1 -28 -14 -9 -12 16
-17 17 -28 6 -11 -11 -10 -12 7 -7 16 5 17 5 5 -3 -8 -6 -19 -8 -25 -4 -5 4
-17 7 -25 8 -41 3 -46 5 -47 23 -1 14 4 19 17 16 11 -2 22 0 25 6 4 5 -9 9
-28 9 -22 0 -37 -6 -41 -15 -3 -8 0 -15 7 -16 9 0 9 -2 0 -6 -7 -2 -13 -21
-13 -41 0 -41 -6 -52 -36 -68 -23 -13 -85 -5 -124 16 -14 8 -32 14 -40 15 -41
4 -152 97 -189 158 -23 37 -23 39 -5 52 20 14 90 35 121 35 10 0 29 7 43 14
37 20 43 19 38 -9z m-1673 -65 c277 -18 304 -21 298 -36 -4 -11 16 -14 105
-14 119 0 142 -4 142 -26 0 -10 -13 -14 -47 -14 -53 0 -49 -17 6 -22 19 -2 36
-9 39 -15 3 -10 -17 -13 -75 -13 -43 0 -89 -3 -103 -6 -24 -6 -24 -6 -6 8 27
21 9 29 -65 30 -37 1 -55 4 -47 9 20 13 -212 11 -257 -3 -22 -6 -46 -10 -54
-9 -8 1 -10 -2 -5 -11 6 -11 5 -11 -8 0 -18 14 -89 12 -100 -3 -5 -6 -8 -5 -8
3 0 6 -9 12 -20 12 -11 0 -20 -6 -21 -12 0 -10 -2 -10 -6 0 -2 6 -17 12 -31
12 -22 0 -24 -2 -12 -11 11 -8 7 -9 -16 -4 -17 3 -43 1 -59 -5 -23 -9 -19 -3
22 34 27 25 60 61 74 81 22 32 28 35 59 30 19 -2 107 -9 195 -15z m-2345
-1052 c-1 -7 -7 -31 -15 -52 -8 -22 -12 -43 -9 -48 3 -4 1 -8 -3 -8 -5 0 -13
-10 -18 -22 -6 -12 -21 -23 -34 -25 -21 -3 -22 -1 -10 14 8 9 10 15 4 12 -5
-3 -23 -11 -40 -18 -16 -7 -37 -17 -46 -22 -9 -4 -20 -5 -23 -2 -8 9 -8 168 1
176 3 4 48 7 100 7 68 0 93 -3 93 -12z m-160 -228 c0 -5 16 -10 35 -10 22 0
43 -8 55 -20 24 -24 26 -40 5 -40 -18 0 -20 -26 -2 -33 6 -3 -5 -6 -25 -6 -37
-1 -38 -2 -38 -40 0 -25 -5 -41 -15 -45 -8 -3 -15 -12 -15 -21 0 -17 -16 -20
-25 -5 -3 6 1 13 9 16 20 8 21 30 1 38 -17 6 -21 66 -4 66 6 0 3 7 -5 16 -16
15 -22 75 -9 87 10 11 33 8 33 -3z"/>
<path d="M5145 6690 c4 -6 2 -17 -5 -25 -15 -18 6 -31 25 -15 11 9 15 9 15 1
0 -6 -10 -15 -22 -20 l-23 -8 23 -7 c12 -4 26 -4 32 -1 5 3 10 1 10 -5 0 -7
-9 -14 -20 -17 -12 -3 -27 -18 -35 -34 -14 -26 -14 -29 5 -39 11 -6 19 -16 17
-23 -1 -8 10 -11 37 -9 25 3 42 -1 47 -10 7 -10 9 -10 9 0 0 7 14 12 35 12 25
0 35 -4 35 -16 0 -9 5 -14 11 -12 6 2 10 7 9 12 -1 5 4 12 11 17 12 7 14 76 3
111 -6 21 -86 78 -108 78 -19 0 -22 -20 -3 -20 6 0 4 -5 -6 -11 -22 -13 -37
-4 -37 22 0 16 -5 19 -19 14 -11 -3 -22 -1 -26 5 -3 5 -11 10 -16 10 -6 0 -7
-5 -4 -10z"/>
<path d="M4045 6643 c4 -21 11 -53 15 -72 5 -18 6 -47 3 -63 l-6 -29 67 2 66
2 0 34 c0 21 -6 36 -15 39 -9 4 -15 19 -15 36 0 31 -16 68 -34 80 -6 4 -28 8
-49 8 l-38 0 6 -37z"/>
<path d="M3738 6652 c-20 -4 -25 -32 -5 -32 6 0 17 -11 23 -25 11 -22 9 -24
-16 -30 -38 -8 -46 -33 -15 -45 29 -11 33 -27 8 -33 -10 -3 29 -5 86 -6 103
-1 103 -1 96 22 -4 12 -9 35 -12 51 -7 35 -37 68 -56 60 -8 -3 -20 2 -27 11
-18 21 -28 19 -32 -7 -4 -22 -5 -21 -19 8 -9 20 -20 29 -31 26z"/>
<path d="M5203 6465 c-7 -8 -13 -19 -13 -25 0 -5 -4 -10 -10 -10 -5 0 -10 7
-10 15 0 8 -4 15 -10 15 -5 0 -9 -5 -7 -11 1 -6 -4 -14 -10 -16 -7 -3 -13 2
-13 11 0 9 -4 16 -10 16 -5 0 -7 -6 -4 -14 5 -12 -22 -15 -164 -15 -130 -1
-171 1 -175 11 -4 10 -6 10 -6 1 -1 -7 -7 -13 -15 -13 -8 0 -17 6 -19 13 -3 6
-6 4 -6 -7 -1 -18 -2 -18 -21 -1 -18 16 -20 16 -20 2 0 -22 -19 -22 -27 -1 -4
12 -8 13 -13 3 -6 -9 -89 -13 -321 -16 -173 -2 -316 -6 -318 -9 -2 -2 120 -4
272 -4 178 0 277 -4 277 -10 0 -6 -33 -10 -77 -10 -136 -1 -472 -11 -638 -20
-104 -5 79 -7 528 -6 378 1 687 -2 687 -6 0 -4 -118 -9 -262 -9 -524 -3 -587
-14 -113 -20 242 -3 442 -2 443 3 5 12 82 10 82 -2 0 -7 32 -8 88 -5 48 2 89
5 91 5 2 0 -2 7 -9 15 -10 12 -34 15 -112 14 -55 -1 -102 2 -105 5 -4 3 42 6
101 6 99 0 108 1 101 18 -4 9 -9 25 -12 34 -4 14 -16 16 -74 13 -54 -2 -69 0
-69 11 0 8 5 14 10 14 6 0 10 5 10 10 0 14 -13 12 -27 -5z"/>
<path d="M2960 6362 c0 -15 81 -82 91 -76 5 3 9 -1 9 -8 0 -21 22 -45 47 -52
19 -6 21 -4 18 16 -7 36 5 45 67 51 93 10 138 19 144 28 3 5 -17 9 -45 9 -50
0 -77 14 -44 23 12 3 10 5 -7 6 -15 0 -31 -4 -38 -11 -8 -8 -15 -8 -25 0 -18
15 -164 21 -177 8 -6 -6 -15 -4 -25 4 -9 7 -15 8 -15 2z"/>
<path d="M3988 5613 c5 -10 7 -24 5 -31 -3 -7 7 -32 21 -56 27 -47 32 -61 17
-51 -16 9 -22 -12 -6 -25 12 -10 11 -15 -6 -33 -15 -16 -19 -31 -15 -54 4 -26
1 -33 -12 -33 -14 0 -15 -2 -2 -10 9 -6 17 -5 23 3 4 7 6 -3 3 -22 -3 -19 -13
-39 -23 -45 -16 -9 -16 -11 7 -17 50 -14 112 -10 126 9 11 14 16 15 33 5 19
-12 19 -10 15 70 -5 116 -26 277 -36 283 -4 3 -8 -19 -9 -48 0 -29 -2 -100 -2
-158 -1 -58 -6 -107 -12 -110 -6 -3 -10 50 -11 150 0 86 -3 160 -7 167 -12 19
-57 22 -67 4 -9 -15 -11 -14 -20 2 -6 9 -15 17 -21 17 -6 0 -6 -7 -1 -17z"/>
<path d="M3276 5592 c-15 -18 -15 -20 2 -35 10 -10 26 -17 35 -17 18 0 19 -2
21 -131 0 -44 -2 -83 -6 -85 -3 -2 -4 -13 -1 -24 4 -17 0 -20 -24 -20 -16 0
-34 5 -40 11 -14 14 -24 -2 -16 -29 5 -21 11 -22 122 -22 64 0 126 -3 139 -6
19 -6 22 -2 22 22 l0 27 23 -21 c19 -18 38 -22 122 -25 70 -4 110 -1 133 8 17
8 32 10 32 4 0 -5 4 -9 10 -9 6 0 8 37 4 97 -5 103 -14 139 -14 59 0 -45 -1
-46 -27 -42 -15 3 -32 1 -39 -5 -19 -16 -56 8 -54 34 1 12 2 43 1 69 l-1 47
-35 -1 -35 -1 0 -53 c0 -40 4 -54 18 -59 14 -7 13 -9 -8 -14 -29 -8 -42 -51
-16 -51 9 0 16 -4 16 -10 0 -5 -7 -10 -15 -10 -8 0 -15 -6 -15 -12 0 -8 -14
-14 -34 -15 -30 -1 -34 2 -40 29 -3 17 -6 51 -7 77 0 25 -3 40 -6 34 -2 -7
-13 -13 -22 -13 -15 0 -19 12 -24 75 -4 42 -14 89 -22 105 -15 30 -17 30 -99
30 -68 0 -86 -3 -100 -18z"/>
<path d="M4997 5583 c-4 -3 3 -11 15 -17 12 -6 23 -17 26 -25 3 -9 0 -11 -8
-6 -9 6 -11 4 -6 -4 5 -7 18 -16 30 -21 19 -8 19 -9 -6 -9 -32 -1 -34 -7 -11
-33 20 -22 10 -36 -13 -18 -13 12 -17 11 -25 -1 -13 -20 -11 -29 6 -29 9 0 12
-6 8 -17 -5 -13 -2 -15 11 -10 18 7 76 -41 76 -63 0 -12 -87 44 -108 69 -11
14 -12 13 -10 -9 2 -16 9 -25 19 -24 10 1 22 -9 28 -22 8 -19 8 -24 -4 -24
-17 0 -20 -16 -5 -25 6 -3 10 -1 10 6 0 22 14 -1 18 -29 5 -37 8 -39 47 -18
27 15 38 16 49 7 20 -16 26 17 25 129 -1 84 -3 92 -22 100 -12 5 -16 9 -9 9
16 1 16 31 -1 31 -8 0 -27 11 -42 24 -16 14 -32 23 -37 20 -4 -3 -8 0 -8 7 0
8 -4 8 -15 -1 -10 -9 -15 -9 -15 -1 0 12 -13 15 -23 4z"/>
<path d="M4395 5560 c-3 -5 -1 -20 4 -34 6 -14 7 -44 2 -68 -5 -31 -3 -49 7
-66 12 -18 12 -25 2 -37 -7 -8 -8 -15 -3 -15 18 0 10 -64 -10 -82 -19 -17 -19
-18 -1 -25 9 -3 37 0 61 9 23 8 40 11 36 5 -4 -6 3 -8 20 -3 15 3 29 1 32 -5
5 -7 37 -8 99 -4 50 4 110 7 134 6 37 -2 42 1 43 21 1 13 0 28 -2 33 -2 6 -4
28 -4 50 -5 147 -3 137 -27 133 -18 -2 -24 -11 -28 -43 -5 -36 -6 -38 -17 -20
-7 11 -13 15 -13 10 0 -19 -53 -9 -61 11 -7 17 -8 17 -8 2 -1 -28 -21 -21 -21
7 0 25 -14 33 -25 15 -4 -6 -10 -8 -14 -5 -11 6 -22 -82 -15 -120 9 -47 -3
-75 -31 -75 -25 0 -25 2 -26 83 0 45 -4 102 -8 127 l-7 45 -14 -28 c-11 -23
-15 -25 -22 -13 -5 8 -15 13 -23 10 -10 -4 -15 0 -15 15 0 12 4 21 10 21 5 0
7 6 5 13 -7 16 -54 37 -60 27z"/>
<path d="M3080 4495 c11 -13 8 -17 -19 -26 -17 -6 -31 -15 -31 -20 0 -5 -7 -9
-15 -9 -18 0 -20 -16 -4 -26 12 -7 6 -130 -7 -143 -3 -3 -14 4 -24 17 -18 22
-50 30 -50 12 0 -5 9 -25 19 -44 11 -19 18 -36 15 -39 -2 -2 0 -15 5 -28 9
-23 10 -23 10 -2 1 12 6 25 11 28 6 4 8 16 4 28 -6 19 -5 20 10 8 11 -9 13
-17 6 -26 -5 -6 -7 -15 -3 -18 3 -4 0 -13 -7 -22 -10 -12 -10 -15 0 -15 9 0
11 -11 7 -34 l-5 -34 46 -5 c106 -11 172 -8 172 8 0 8 -7 15 -15 15 -8 0 -15
3 -15 6 0 3 7 12 15 20 8 9 15 21 15 27 0 7 -5 4 -11 -6 -11 -19 -29 -14 -29
9 0 8 7 14 16 14 14 0 14 2 3 16 -17 21 -19 50 -7 98 7 29 6 46 -3 63 -10 18
-10 34 -2 63 8 33 8 40 -4 40 -8 0 -12 -4 -8 -9 3 -5 1 -12 -5 -16 -5 -3 -10
3 -10 14 0 17 -6 21 -30 21 -20 0 -30 5 -30 15 0 8 -7 15 -16 15 -14 0 -14 -3
-4 -15z"/>
<path d="M3650 4496 c0 -9 -10 -20 -22 -25 -20 -7 -20 -8 -2 -15 18 -8 18 -8
-1 -16 -40 -17 -82 -11 -98 13 l-16 22 -7 -32 c-8 -38 -18 -42 -36 -13 -7 11
-18 20 -25 20 -7 0 -13 5 -13 10 0 6 -19 10 -42 10 -31 0 -39 -3 -28 -10 11
-7 9 -11 -13 -19 -16 -6 -38 -11 -49 -11 -21 0 -21 -1 -3 -20 19 -21 27 -80
18 -137 -4 -24 -10 -33 -25 -33 -10 0 -16 -5 -13 -10 4 -6 10 -8 15 -5 11 7
22 -24 15 -46 -3 -9 -1 -21 6 -24 8 -6 7 -10 -2 -16 -11 -7 -12 -12 -2 -28 14
-23 8 -31 -26 -31 -17 0 -22 -3 -15 -10 11 -11 2162 -16 2173 -4 10 9 0 308
-11 321 -6 8 -3 15 10 22 15 8 19 17 14 33 -10 41 -51 53 -53 16 -1 -18 -2
-19 -6 -5 -3 10 1 24 7 32 10 12 9 15 -8 15 -11 0 -22 -6 -25 -12 -3 -10 -7
-10 -18 -2 -22 18 -71 24 -65 8 3 -8 -4 -14 -17 -16 -12 -2 -22 -10 -22 -18 0
-8 -11 -17 -24 -18 -18 -3 -22 0 -18 12 4 11 -1 18 -18 22 -14 3 -25 11 -25
16 0 6 -14 8 -34 4 -20 -4 -37 -2 -41 4 -10 16 -30 12 -55 -10 -13 -11 -35
-20 -49 -21 -23 0 -24 -1 -6 -9 18 -7 18 -9 3 -15 -20 -8 -41 2 -33 16 4 5 1
9 -4 9 -6 0 -14 0 -18 0 -5 0 -8 -6 -8 -12 0 -10 -32 -14 -119 -16 -100 -2
-121 0 -129 13 -4 8 -12 13 -17 10 -4 -3 -10 2 -14 10 -7 18 -37 20 -54 3 -9
-9 -12 -8 -12 6 0 15 -3 16 -15 6 -10 -8 -19 -9 -27 -2 -15 11 -88 21 -88 12
0 -4 10 -12 23 -18 20 -9 17 -11 -21 -11 -39 -1 -43 -3 -37 -21 6 -17 2 -20
-29 -20 -25 0 -36 5 -36 15 0 19 -36 38 -60 30 -24 -8 -62 3 -55 15 8 13 -25
21 -43 10 -16 -9 -16 -9 1 -10 9 0 17 -4 17 -10 0 -6 -3 -9 -7 -9 -27 4 -53
-3 -53 -15 0 -7 -10 -16 -22 -20 -37 -9 -48 -7 -48 10 0 9 -9 18 -20 21 -11 3
-20 10 -20 15 0 5 -9 6 -21 3 -13 -4 -27 -1 -39 10 -19 17 -66 13 -55 -5 3 -5
-4 -11 -15 -15 -25 -8 -26 -25 -2 -26 28 -1 -17 -17 -51 -18 -21 -1 -30 5 -34
19 -3 11 -12 20 -19 20 -8 0 -19 10 -24 23 -6 15 -9 17 -9 6 -1 -21 -39 -32
-49 -14 -4 7 -19 17 -34 20 -22 6 -28 4 -28 -9z"/>
<path d="M5723 4273 c3 -15 -1 -23 -14 -26 -11 -3 -19 -13 -19 -22 0 -9 -7
-30 -16 -47 -9 -16 -22 -55 -30 -86 -8 -31 -20 -62 -26 -69 -6 -7 -9 -16 -6
-19 3 -3 16 12 28 33 14 23 25 33 28 25 2 -8 -1 -19 -7 -25 -6 -6 -11 -25 -11
-43 0 -18 -6 -34 -12 -37 -9 -3 -6 -11 8 -25 l22 -21 5 28 c3 16 13 35 21 44
8 8 12 17 9 21 -3 3 0 13 7 22 11 13 11 17 1 24 -8 4 -9 9 -3 11 14 5 32 200
20 219 -7 11 -8 10 -5 -7z"/>
<path d="M525 4230 c4 -6 -6 -10 -22 -10 -43 0 -73 -11 -73 -26 0 -10 -13 -14
-45 -14 -43 0 -60 12 -32 23 6 3 -9 6 -35 6 -26 1 -50 -3 -53 -9 -3 -5 0 -10
7 -10 7 0 4 -6 -7 -12 -19 -12 -19 -12 5 -19 14 -4 72 -7 129 -8 l103 -1 -4
25 c-4 19 -1 25 13 25 9 0 19 -3 21 -7 2 -5 44 -7 95 -5 68 3 93 7 97 18 5 12
-8 14 -71 13 -50 -1 -78 2 -81 10 -2 6 -15 11 -28 11 -14 0 -22 -4 -19 -10z"/>
<path d="M2610 3880 c0 -6 39 -10 105 -10 103 0 111 -3 106 -32 0 -5 10 -8 23
-8 17 0 23 5 22 18 -1 16 66 17 1292 16 710 -1 1292 3 1292 7 0 9 -528 13
-1897 17 -649 2 -943 0 -943 -8z"/>
<path d="M3228 3772 c-38 -2 -68 -6 -68 -10 0 -4 132 -8 293 -10 160 -1 396
-6 522 -11 210 -7 219 -8 100 -11 -144 -3 -136 -6 75 -25 l145 -12 -123 -2
c-68 0 -121 -5 -118 -9 8 -13 586 -14 601 -2 9 7 80 6 235 -5 123 -8 283 -15
357 -15 l133 0 0 53 0 54 -552 7 c-508 6 -1440 5 -1600 -2z"/>
<path d="M3543 3723 l-52 -4 1 -73 c0 -68 3 -74 37 -114 l36 -43 110 -4 c134
-6 139 -10 138 -100 -1 -61 8 -83 21 -50 3 8 30 27 61 41 62 30 59 15 24 151
-11 40 -19 85 -19 99 l0 27 88 -7 c128 -9 657 -9 657 1 0 8 -172 13 -525 13
l-205 1 -25 34 c-23 33 -28 35 -65 28 -45 -7 -95 -8 -175 -1 -30 3 -78 3 -107
1z"/>
<path d="M3210 3385 c-27 -37 -44 -46 -33 -18 5 11 3 14 -6 9 -7 -5 -10 -17
-8 -27 4 -14 1 -19 -11 -17 -11 2 -16 -3 -14 -14 4 -25 -14 -56 -38 -63 -11
-4 -18 -11 -14 -16 4 -6 10 -6 19 1 12 10 45 4 45 -9 0 -3 -9 -12 -20 -19 -21
-13 -28 -52 -9 -52 5 0 7 -5 4 -11 -4 -6 -13 -8 -20 -5 -19 7 -26 -20 -9 -34
11 -10 14 -9 14 4 0 16 12 21 23 9 4 -3 1 -13 -6 -22 -10 -14 -10 -14 4 -4 9
7 19 10 22 6 4 -3 7 -1 7 5 0 6 -4 13 -10 17 -5 3 -7 12 -4 20 4 8 -1 17 -9
21 -9 3 -13 12 -10 20 8 21 23 17 23 -7 0 -11 3 -18 8 -16 4 3 7 -10 7 -29 0
-23 -7 -38 -22 -49 -13 -9 -20 -22 -17 -30 4 -9 -3 -18 -17 -24 l-24 -10 23 0
c13 -1 20 -5 17 -11 -3 -5 -2 -10 3 -10 14 0 22 -40 9 -40 -7 0 -1 -9 13 -20
14 -11 19 -20 13 -20 -7 0 -13 -6 -13 -14 0 -8 -5 -16 -12 -18 -6 -2 -9 -12
-5 -21 4 -10 12 -14 22 -11 9 4 15 1 15 -9 0 -10 -8 -14 -25 -12 -21 2 -24 -1
-20 -16 4 -11 -1 -21 -12 -28 -12 -7 -13 -10 -4 -11 11 0 11 -3 1 -15 -7 -9
-9 -19 -5 -23 4 -4 10 -1 12 6 6 16 38 15 52 -2 10 -11 10 -20 1 -36 -13 -24
-6 -55 10 -45 16 10 12 -4 -9 -34 -17 -23 -18 -29 -5 -51 18 -34 17 -48 -2
-24 -13 16 -15 16 -10 2 4 -13 -2 -20 -20 -24 -17 -4 -23 -11 -19 -21 3 -11 1
-13 -10 -9 -13 5 -20 -5 -16 -26 0 -5 -11 -8 -26 -8 -20 0 -40 14 -75 51 -29
31 -48 45 -48 35 0 -10 -6 -13 -15 -10 -9 4 -15 0 -15 -9 0 -10 -16 -17 -52
-22 -29 -5 -57 -7 -62 -6 -4 1 -33 -8 -65 -20 -48 -19 -78 -23 -211 -25 -141
-2 -146 -1 -50 5 100 7 158 24 175 51 9 15 25 12 25 -5 0 -8 5 -15 10 -15 6 0
13 7 16 15 4 8 17 15 31 15 13 0 35 12 49 26 25 24 25 26 8 45 -10 11 -12 19
-6 19 8 0 12 30 13 93 1 88 2 90 12 50 17 -59 27 -64 27 -12 0 33 -5 48 -20
59 -19 13 -20 26 -20 192 0 101 -4 178 -9 178 -5 0 -11 -4 -13 -9 -3 -9 -35
-14 -70 -12 -14 1 -16 5 -8 26 6 15 6 26 0 30 -6 4 -4 13 5 21 8 9 13 19 10
23 -2 5 7 6 20 3 14 -2 25 0 25 6 0 15 -51 22 -57 6 -2 -7 -11 -10 -19 -7 -8
3 -14 -1 -14 -11 0 -9 -4 -16 -10 -16 -5 0 -10 5 -10 10 0 6 -8 10 -18 10 -10
0 -23 5 -30 12 -7 7 -12 9 -12 4 0 -4 -10 0 -22 8 -12 9 -35 16 -51 16 -17 0
-26 4 -22 10 4 6 14 9 23 6 10 -3 37 -7 62 -10 41 -5 46 -3 57 19 14 31 5 37
-36 25 -28 -8 -31 -7 -21 5 17 20 4 35 -30 35 -19 0 -41 -12 -66 -35 -34 -32
-63 -47 -50 -26 8 12 -21 47 -31 37 -4 -5 -2 -11 5 -13 6 -3 12 -9 12 -14 0
-6 -4 -7 -10 -4 -5 3 -10 2 -10 -4 0 -5 5 -13 11 -16 5 -4 8 -12 6 -18 -2 -7
0 -25 4 -40 7 -25 6 -27 -7 -16 -22 18 -62 -26 -46 -51 8 -13 7 -21 -6 -34 -9
-9 -11 -16 -5 -16 6 0 14 6 17 13 3 8 8 7 16 -5 15 -24 33 -22 68 7 17 14 34
25 39 25 5 0 20 11 33 25 15 16 26 21 30 14 5 -7 11 -6 21 3 18 17 51 17 57
-1 3 -8 0 -11 -6 -7 -6 3 -13 2 -16 -2 -3 -5 -19 -8 -36 -7 -16 1 -30 -2 -30
-6 0 -5 -15 -15 -32 -23 -43 -19 -68 -40 -68 -56 0 -6 -9 -23 -20 -37 -11 -14
-20 -23 -20 -19 0 4 -7 1 -15 -8 -8 -8 -15 -31 -15 -50 0 -47 -18 -46 -22 1
-2 20 -9 38 -16 41 -8 2 -10 -2 -5 -15 6 -16 5 -16 -10 -5 -8 8 -13 21 -11 30
5 14 4 14 -6 -1 -16 -25 -3 -74 21 -80 10 -3 19 -10 19 -17 0 -6 -4 -8 -10 -5
-5 3 -10 1 -10 -5 0 -7 6 -10 13 -7 6 2 23 7 37 11 24 7 24 6 6 -8 -11 -9 -23
-16 -27 -16 -14 0 -17 -29 -3 -34 7 -3 13 -2 11 2 -1 4 3 8 8 10 6 2 20 10 33
18 19 13 22 13 22 -1 0 -8 -11 -22 -25 -31 -30 -20 -26 -31 4 -14 34 18 24 -3
-11 -23 -23 -13 -28 -21 -19 -26 9 -6 10 -11 2 -15 -6 -4 -11 -2 -11 4 0 6 -5
8 -11 4 -6 -3 -15 0 -20 7 -6 9 -9 10 -9 2 0 -6 14 -25 31 -42 29 -29 32 -30
47 -14 16 16 17 14 20 -25 3 -38 6 -43 33 -49 34 -7 39 -33 6 -33 -13 0 -36
-13 -52 -30 -34 -36 -42 -37 -40 -7 2 12 8 21 14 20 19 -5 12 25 -8 32 -11 3
-23 15 -27 27 -4 15 -8 17 -14 8 -5 -9 -9 -9 -14 -1 -4 6 -4 11 1 11 4 0 0 5
-9 11 -10 5 -18 17 -18 24 0 8 -4 15 -10 15 -5 0 -10 -6 -10 -14 0 -8 -7 -13
-16 -12 -9 0 -19 -5 -21 -12 -3 -7 1 -10 10 -7 7 3 20 -1 27 -9 7 -9 17 -13
22 -10 5 4 9 -4 8 -17 -3 -36 -1 -53 6 -46 7 6 44 -30 44 -42 -1 -12 -29 -56
-30 -46 0 6 -7 -1 -15 -15 -9 -17 -10 -27 -3 -31 15 -10 0 -29 -23 -29 -10 0
-19 -3 -19 -7 1 -20 20 -28 75 -31 35 -2 66 -9 76 -18 12 -11 45 -15 128 -17
114 -1 156 -16 54 -18 l-58 -2 70 -8 c62 -7 174 -3 183 6 2 2 -18 7 -45 11
l-48 8 45 9 c25 5 83 10 130 11 47 1 90 5 96 9 7 4 17 0 24 -8 14 -17 60 -21
60 -5 0 5 7 7 15 3 9 -3 13 -8 11 -11 -3 -3 8 -19 25 -35 l32 -30 241 4 c218
4 241 2 238 -12 -3 -19 25 -29 82 -29 79 0 145 39 146 87 0 12 4 24 8 27 8 5
8 39 -1 125 -2 19 5 26 33 37 19 7 53 13 75 14 34 2 28 4 -35 16 -41 8 -81 12
-87 9 -16 -5 -17 21 -2 30 5 4 9 17 8 28 0 12 -1 42 0 66 l1 43 83 -6 c127
-10 162 -17 146 -27 -9 -6 7 -9 46 -7 59 2 100 -12 118 -39 13 -21 78 -34 96
-20 12 9 13 9 7 0 -5 -10 11 -13 71 -15 43 -1 61 -3 41 -5 -21 -2 -38 -9 -38
-15 0 -6 10 -8 25 -4 26 7 85 14 147 19 68 6 70 11 59 180 -1 13 -6 17 -19 12
-11 -3 -34 1 -53 9 -19 9 -26 15 -16 16 28 0 19 18 -13 25 -17 4 -30 13 -30
22 0 10 -6 13 -16 9 -9 -3 -29 -6 -45 -6 -23 0 -29 -4 -27 -17 3 -15 -6 -18
-59 -21 -50 -2 -63 0 -63 12 0 8 -3 21 -6 30 -5 13 2 15 48 11 47 -5 44 -3
-27 13 -44 10 -91 22 -105 26 -17 5 -21 4 -11 -2 10 -7 10 -11 1 -17 -7 -4
-15 -3 -19 2 -3 5 -16 12 -29 16 -19 4 -22 2 -16 -15 3 -11 8 -28 9 -37 2 -9
4 -16 5 -16 1 0 3 -10 6 -22 4 -23 -10 -32 -20 -14 -3 5 -38 12 -77 16 l-70 7
20 22 c20 22 41 67 41 91 0 11 -7 12 -27 5 -16 -5 -59 -14 -96 -20 -57 -10
-67 -15 -62 -30 3 -9 -1 -23 -10 -30 -13 -11 -15 -8 -16 16 0 16 -2 46 -3 67
-1 21 2 40 6 43 16 10 198 7 211 -4 7 -6 36 -10 65 -10 l52 1 0 38 c0 47 -11
76 -43 113 -20 23 -23 34 -16 53 9 25 9 26 -41 24 -67 -3 -88 -11 -83 -30 4
-15 -4 -19 -46 -25 -28 -4 -51 -12 -51 -18 0 -6 -11 -8 -24 -6 -34 7 -41 -17
-14 -42 12 -11 26 -20 30 -20 5 0 6 -4 3 -10 -3 -5 -17 -10 -30 -10 -16 0 -25
7 -28 23 -3 12 -5 0 -5 -28 0 -27 0 -54 -2 -60 -1 -5 -3 -22 -3 -37 -3 -41
-22 -39 -25 2 -1 19 -5 42 -8 50 -19 49 -5 133 21 124 14 -6 23 21 17 49 -4
19 -16 20 -149 9 l-83 -7 -1 35 c-1 41 -7 82 -14 89 -3 2 -11 -2 -18 -11 -15
-19 -45 -30 -52 -18 -3 4 -28 0 -56 -10 -44 -17 -55 -17 -89 -5 -21 7 -41 11
-44 8 -3 -3 -8 1 -12 10 -3 9 -12 13 -20 10 -8 -3 -14 1 -14 8 0 10 -3 10 -12
1 -7 -7 -18 -12 -26 -12 -12 0 -11 4 2 25 25 38 5 29 -24 -10z"/>
<path d="M4374 3386 c-3 -8 -4 -21 -2 -29 2 -8 -8 -24 -22 -36 -17 -15 -21
-24 -12 -27 17 -8 15 -34 -2 -34 -8 0 -17 -7 -20 -16 -9 -22 -8 -24 9 -24 9 0
18 -7 22 -16 4 -11 13 -14 29 -10 15 4 24 2 24 -5 0 -7 -11 -10 -28 -7 -21 3
-43 -7 -92 -42 -68 -48 -84 -70 -52 -70 11 0 25 -7 33 -16 7 -9 21 -13 35 -10
13 4 31 -2 47 -14 23 -18 41 -20 176 -20 141 0 151 1 143 18 -43 88 -49 96
-97 122 -27 15 -53 34 -56 41 -19 39 -34 110 -32 157 l2 52 -50 0 c-33 0 -51
-5 -55 -14z"/>
</g>
</svg>
